<svg width="29" height="27" viewBox="0 0 29 27" fill="none" xmlns="http://www.w3.org/2000/svg">
<g id="clarity:users-line" clip-path="url(#clip0_993_938)">
<path id="Vector" d="M14.4029 12.7044C17.0034 12.7044 19.0259 10.5697 19.0259 7.94993C19.0259 5.33011 16.9071 3.29248 14.3066 3.29248C11.7062 3.29248 9.68359 5.42715 9.68359 7.94993C9.68359 10.5697 11.8025 12.7044 14.4029 12.7044ZM14.3066 5.23309C14.4029 5.23309 14.4029 5.23309 14.3066 5.23309C15.8476 5.23309 17.0997 6.49448 17.0997 8.04696C17.0997 9.59945 15.8476 10.7638 14.3066 10.7638C12.7656 10.7638 11.6099 9.50242 11.6099 8.04696C11.6099 6.49448 12.8619 5.23309 14.3066 5.23309Z" fill="#0D5C63"/>
<path id="Vector_2" d="M28.6585 12.122C26.8286 10.4725 24.4208 9.59924 21.9166 9.69627H21.1461C20.9535 10.4725 20.6645 11.1517 20.2793 11.7339C20.8572 11.6369 21.3387 11.6369 21.9166 11.6369C23.7466 11.5398 25.5765 12.122 27.0212 13.1894V20.1755H28.9475V12.4131L28.6585 12.122Z" fill="#0D5C63"/>
<path id="Vector_3" d="M19.7019 3.4859C20.1835 2.32154 21.5318 1.73936 22.7839 2.22451C23.9397 2.70966 24.5175 4.06808 24.036 5.32947C23.6507 6.20275 22.7839 6.78493 21.9171 6.78493C21.7245 6.78493 21.4355 6.78493 21.2429 6.6879C21.3392 7.17305 21.3392 7.6582 21.3392 8.04632V8.6285C21.5318 8.6285 21.7245 8.72553 21.9171 8.72553C24.3249 8.72553 26.2512 6.78493 26.2512 4.4562C26.2512 2.03045 24.3249 0.0898438 22.0134 0.0898438C20.4724 0.0898438 19.124 0.866085 18.3535 2.22451C18.8351 2.5156 19.3166 2.90372 19.7019 3.4859Z" fill="#0D5C63"/>
<path id="Vector_4" d="M8.7209 11.8306C8.33565 11.2484 8.04671 10.5692 7.85408 9.79296H7.08358C4.57944 9.69593 2.17162 10.5692 0.341673 12.1217L0.0527344 12.4128V20.1752H1.97899V13.189C3.52 12.1217 5.25363 11.5395 7.08358 11.6365C7.66146 11.6365 8.23934 11.7336 8.7209 11.8306Z" fill="#0D5C63"/>
<path id="Vector_5" d="M7.08469 8.62915C7.27732 8.62915 7.46994 8.62915 7.66257 8.53212V7.94994C7.66257 7.46479 7.66257 6.97963 7.75888 6.59151C7.56625 6.68854 7.27732 6.68854 7.08469 6.68854C5.83262 6.68854 4.77318 5.62121 4.77318 4.35982C4.77318 3.09843 5.83262 2.03109 7.08469 2.03109C8.04782 2.03109 8.91464 2.61327 9.29989 3.48655C9.68514 3.0014 10.263 2.51624 10.7446 2.12812C9.49251 0.0904882 6.89206 -0.588723 4.86949 0.67267C2.84692 1.93406 2.17273 4.55388 3.4248 6.59151C4.1953 7.85291 5.54368 8.62915 7.08469 8.62915Z" fill="#0D5C63"/>
<path id="Vector_6" d="M22.3013 17.9435L22.1087 17.6524C20.1824 15.5177 17.4857 14.2563 14.5963 14.3534C11.7069 14.2563 8.91381 15.5177 6.98755 17.6524L6.79492 17.9435V25.3178C6.79492 26.1911 7.46911 26.9673 8.43224 26.9673H20.7603C21.6271 26.9673 22.3976 26.1911 22.3976 25.3178V17.9435H22.3013ZM20.375 25.0267H8.72118V18.6227C10.2622 17.0702 12.3811 16.294 14.5963 16.294C16.7152 16.1969 18.834 17.0702 20.375 18.6227V25.0267Z" fill="#0D5C63"/>
</g>
<defs>
<clipPath id="clip0_993_938">
<rect width="29" height="27" fill="white"/>
</clipPath>
</defs>
</svg>
