<svg width="25" height="32" viewBox="0 0 25 32" fill="none" xmlns="http://www.w3.org/2000/svg">
<g id="fa-solid:award" clip-path="url(#clip0_993_959)">
<path id="Vector" d="M6.54315 22.6624C6.00244 22.1193 6.2843 22.2724 4.98012 21.9218C4.38839 21.7624 3.86821 21.4562 3.39781 21.0893L0.57479 28.0418C0.301634 28.7149 0.811856 29.4462 1.53488 29.4187L4.81337 29.2931L7.0683 31.6856C7.56608 32.2131 8.43968 32.0487 8.71284 31.3756L11.9515 23.3993C11.277 23.7768 10.5285 23.9981 9.75444 23.9981C8.5411 23.9981 7.40119 23.5237 6.54315 22.6624ZM24.3188 28.0418L21.4958 21.0893C21.0254 21.4568 20.5052 21.7624 19.9135 21.9218C18.6024 22.2743 18.8899 22.1206 18.3504 22.6624C17.4924 23.5237 16.3519 23.9981 15.1385 23.9981C14.3645 23.9981 13.6159 23.7762 12.9415 23.3993L16.1801 31.3756C16.4533 32.0487 17.3275 32.2131 17.8247 31.6856L20.0802 29.2931L23.3587 29.4187C24.0817 29.4462 24.5919 28.7143 24.3188 28.0418ZM16.8646 21.2481C17.8153 20.2762 17.9242 20.3599 19.2782 19.9893C20.1424 19.7524 20.8182 19.0618 21.0496 18.1781C21.5151 16.4031 21.3944 16.6174 22.6643 15.3187C23.2971 14.6718 23.5441 13.7287 23.3127 12.8449C22.8479 11.0712 22.8472 11.3187 23.3127 9.54306C23.5441 8.65931 23.2971 7.71619 22.6643 7.06931C21.3944 5.77056 21.5151 5.98431 21.0496 4.20994C20.8182 3.32619 20.1424 2.63556 19.2782 2.39869C17.5434 1.92306 17.7525 2.04744 16.4813 0.748062C15.8485 0.101188 14.9257 -0.151937 14.0615 0.0849375C12.3273 0.559937 12.5694 0.560562 10.8321 0.0849375C9.96786 -0.151937 9.0451 0.100563 8.4123 0.748062C7.14235 2.04681 7.35141 1.92306 5.61603 2.39869C4.75177 2.63556 4.07603 3.32619 3.84457 4.20994C3.37977 5.98431 3.49986 5.77056 2.2299 7.06931C1.5971 7.71619 1.34946 8.65931 1.58155 9.54306C2.04635 11.3156 2.04697 11.0681 1.58155 12.8443C1.35008 13.7281 1.5971 14.6712 2.2299 15.3187C3.49986 16.6174 3.37915 16.4031 3.84457 18.1781C4.07603 19.0618 4.75177 19.7524 5.61603 19.9893C7.00857 20.3706 7.11248 20.3106 8.02901 21.2481C8.85221 22.0899 10.1346 22.2406 11.1239 21.6118C11.5196 21.3595 11.9785 21.2256 12.4471 21.2256C12.9157 21.2256 13.3746 21.3595 13.7703 21.6118C14.759 22.2406 16.0414 22.0899 16.8646 21.2481ZM6.57675 10.9956C6.57675 7.68119 9.20501 4.99431 12.4468 4.99431C15.6886 4.99431 18.3168 7.68119 18.3168 10.9956C18.3168 14.3099 15.6886 16.9968 12.4468 16.9968C9.20501 16.9968 6.57675 14.3099 6.57675 10.9956Z" fill="#0D5C63"/>
</g>
<defs>
<clipPath id="clip0_993_959">
<rect width="23.8933" height="32" fill="white" transform="translate(0.5)"/>
</clipPath>
</defs>
</svg>
