<svg width="23" height="22" viewBox="0 0 23 22" fill="none" xmlns="http://www.w3.org/2000/svg">
<g id="icn bx-star">
<path id="Vector" d="M6.53288 13.1308L5.1662 19.0488C5.12388 19.228 5.13658 19.4158 5.20265 19.5877C5.26872 19.7596 5.38509 19.9075 5.53655 20.0122C5.68801 20.1169 5.86753 20.1735 6.05165 20.1746C6.23578 20.1757 6.41596 20.1212 6.56865 20.0183L11.563 16.6888L16.5573 20.0183C16.7136 20.1221 16.8978 20.1755 17.0853 20.1714C17.2728 20.1673 17.4546 20.1058 17.6061 19.9953C17.7576 19.8849 17.8717 19.7306 17.933 19.5534C17.9942 19.3761 17.9997 19.1844 17.9488 19.0039L16.2712 13.1336L20.4317 9.38944C20.565 9.26946 20.6601 9.11304 20.7054 8.93955C20.7507 8.76605 20.7442 8.58308 20.6866 8.41327C20.629 8.24345 20.523 8.09424 20.3815 7.98408C20.24 7.87392 20.0693 7.80764 19.8906 7.79345L14.6614 7.37703L12.3986 2.36801C12.3264 2.20672 12.2091 2.06976 12.0609 1.97366C11.9126 1.87755 11.7397 1.82642 11.563 1.82642C11.3863 1.82642 11.2134 1.87755 11.0651 1.97366C10.9168 2.06976 10.7995 2.20672 10.7274 2.36801L8.46457 7.37703L3.23542 7.79254C3.05973 7.80645 2.89177 7.87069 2.75163 7.97757C2.61149 8.08445 2.50511 8.22943 2.44522 8.39518C2.38532 8.56094 2.37445 8.74044 2.4139 8.91221C2.45334 9.08398 2.54144 9.24074 2.66765 9.36376L6.53288 13.1308ZM9.14975 9.16288C9.31347 9.14998 9.47071 9.09328 9.60497 8.99871C9.73924 8.90414 9.8456 8.77519 9.91289 8.62538L11.563 4.97387L13.2131 8.62538C13.2804 8.77519 13.3867 8.90414 13.521 8.99871C13.6553 9.09328 13.8125 9.14998 13.9762 9.16288L17.6195 9.45181L14.6192 12.1521C14.3587 12.387 14.2551 12.7484 14.3505 13.0859L15.4998 17.108L12.073 14.8231C11.9226 14.7222 11.7455 14.6683 11.5644 14.6683C11.3832 14.6683 11.2062 14.7222 11.0558 14.8231L7.47488 17.2107L8.43797 13.0409C8.47329 12.8876 8.46855 12.7277 8.42421 12.5767C8.37988 12.4257 8.29744 12.2887 8.18482 12.1787L5.39826 9.4619L9.14975 9.16288Z" fill="#F3CD03"/>
</g>
</svg>
