<svg width="23" height="22" viewBox="0 0 23 22" fill="none" xmlns="http://www.w3.org/2000/svg">
<g id="icn bxs-star">
<path id="Vector" d="M20.6457 8.41256C20.5881 8.24274 20.4819 8.09353 20.3404 7.98335C20.199 7.87316 20.0283 7.80681 19.8495 7.79251L14.6204 7.377L12.3576 2.36798C12.2855 2.20665 12.1683 2.06963 12.0201 1.97344C11.8719 1.87726 11.699 1.82602 11.5223 1.82593C11.3456 1.82583 11.1726 1.87687 11.0243 1.9729C10.876 2.06892 10.7586 2.20582 10.6864 2.36707L8.42356 7.377L3.19441 7.79251C3.01871 7.80642 2.85075 7.87066 2.71062 7.97754C2.57048 8.08442 2.4641 8.2294 2.4042 8.39516C2.34431 8.56091 2.33343 8.74041 2.37288 8.91218C2.41233 9.08395 2.50043 9.24072 2.62664 9.36373L6.49095 13.1308L5.12427 19.0488C5.08277 19.2279 5.09607 19.4154 5.16244 19.5869C5.22881 19.7584 5.3452 19.9059 5.49648 20.0105C5.64777 20.115 5.82698 20.1716 6.01085 20.173C6.19472 20.1744 6.37477 20.1205 6.52763 20.0183L11.522 16.6888L16.5163 20.0183C16.6726 20.1221 16.8568 20.1755 17.0443 20.1713C17.2318 20.1672 17.4135 20.1058 17.5651 19.9953C17.7166 19.8848 17.8307 19.7306 17.892 19.5533C17.9532 19.3761 17.9587 19.1843 17.9078 19.0039L16.2301 13.1336L20.3907 9.38941C20.6631 9.14359 20.7631 8.76019 20.6457 8.41256Z" fill="#F3CD03"/>
</g>
</svg>
